<svg width="260" height="80" viewBox="0 0 260 80" fill="none" xmlns="http://www.w3.org/2000/svg">
  <rect x="4" y="4" width="252" height="72" rx="14" fill="#ffffff" stroke="#111827" stroke-width="4"/>
  <rect x="20" y="20" width="48" height="40" rx="8" fill="#ef233c"/>
  <path d="M31 39.5C31 30.9 37.5 25 46 25C51.5 25 56.1 27.4 58.6 31.4L51.4 35.6C50.3 33.7 48.4 32.5 45.9 32.5C41.9 32.5 39.2 35.4 39.2 39.5C39.2 43.8 42 46.8 46.4 46.8C49.2 46.8 51.2 45.7 52.3 43.8H45.4V37.4H60.5V42C59.1 49.2 53.5 54 46.2 54C37.4 54 31 48 31 39.5Z" fill="#ffffff"/>
  <text x="82" y="39" font-family="Arial, Helvetica, sans-serif" font-size="28" font-weight="800" fill="#111827">GD COMPUTER</text>
  <text x="84" y="58" font-family="Arial, Helvetica, sans-serif" font-size="13" font-weight="700" letter-spacing="2" fill="#ef233c">SALES MANAGEMENT</text>
</svg>
